<?xml version="1.0" encoding="UTF-8" standalone="no"?>
<svg
   viewBox="0 0 640 640"
   version="1.1"
   id="svg1"
   width="640"
   height="640"
   xmlns="http://www.w3.org/2000/svg"
   xmlns:svg="http://www.w3.org/2000/svg">
  <defs
     id="defs1" />
  <!--!Font Awesome Free 6.6.0 by @fontawesome - https://fontawesome.com License - https://fontawesome.com/license/free Copyright 2024 Fonticons, Inc.-->
  <g
     id="g4"
     transform="translate(0,63.999986)">
    <path
       d="M 64,64 C 64,28.653752 92.653777,2.7783519e-5 128,2.7783519e-5 163.34622,2.7783519e-5 192,28.653752 192,64 192,99.346248 163.34622,127.99997 128,127.99997 92.653777,127.99997 64,99.346248 64,64 Z M 25.9,233.4 C 29.3,191.9 64,160 105.6,160 h 44.8 c 27,0 51,13.4 65.5,34.1 -2.7,1.9 -5.2,4 -7.5,6.3 l -64,64 c -21.9,21.9 -21.9,57.3 0,79.2 L 192,391.2 V 464 c 0,26.5 -21.5,48 -48,48 H 112 C 85.5,512 64,490.5 64,464 V 348.3 C 37.5,338.8 19.3,312.5 21.8,282.7 Z"
       id="path2"
       style="fill:#cb4f24;fill-opacity:1" />
    <path
       d="m 272,240 v 32 h 96 v -32 c 0,-9.7 5.8,-18.5 14.8,-22.2 9,-3.7 19.3,-1.7 26.2,5.2 l 64,64 c 9.4,9.4 9.4,24.6 0,33.9 l -64,64 c -6.9,6.9 -17.2,8.9 -26.2,5.2 -9,-3.7 -14.8,-12.5 -14.8,-22.2 v -32 h -96 v 32 c 0,9.7 -5.8,18.5 -14.8,22.2 -9,3.7 -19.3,1.7 -26.2,-5.2 l -64,-64 c -9.4,-9.4 -9.4,-24.6 0,-33.9 l 64,-64 c 6.9,-6.9 17.2,-8.9 26.2,-5.2 9,3.7 14.8,12.5 14.8,22.2 z"
       id="path3"
       style="fill:#808080" />
    <path
       d="M 448,64 C 448,28.653752 476.65378,2.7783519e-5 512,2.7783519e-5 547.34622,2.7783519e-5 576,28.653752 576,64 c 0,35.346248 -28.65378,63.99997 -64,63.99997 -35.34622,0 -64,-28.653722 -64,-63.99997 z m -16.4,136.4 c -2.3,-2.3 -4.9,-4.4 -7.5,-6.3 14.5,-20.7 38.6,-34.1 65.5,-34.1 h 44.8 c 41.6,0 76.3,31.9 79.7,73.4 l 4.1,49.3 c 2.5,29.8 -15.7,56.1 -42.2,65.6 V 464 c 0,26.5 -21.5,48 -48,48 h -32 c -26.5,0 -48,-21.5 -48,-48 v -72.8 l 47.6,-47.6 c 21.9,-21.9 21.9,-57.3 0,-79.2 z"
       id="path4"
       style="fill:#00384e;fill-opacity:1" />
  </g>
</svg>
